<svg width="19" height="17" viewBox="0 0 19 17" fill="none" xmlns="http://www.w3.org/2000/svg">
<path d="M18.5422 8.35116C18.5422 4.67553 16.4031 1.4996 13.302 0V16.7023C16.4031 15.2027 18.5422 12.0268 18.5422 8.35116Z" fill="#D80027"/>
<path d="M0 8.35116C0 12.0268 2.13905 15.2027 5.2402 16.7023V0C2.13905 1.4996 0 4.67553 0 8.35116Z" fill="#D80027"/>
<path d="M10.8835 9.56044L12.4958 8.75425L11.6897 8.35118V7.54499L10.0773 8.35118L10.8835 6.7388H10.0773L9.2711 5.52954L8.46491 6.7388H7.65873L8.46491 8.35118L6.85254 7.54499V8.35118L6.04639 8.75425L7.65873 9.56044L7.25565 10.3666H8.86802V11.5759H9.67418V10.3666H11.2866L10.8835 9.56044Z" fill="#D80027"/>
</svg>
