<svg width="53" height="53" viewBox="0 0 53 53" fill="none" xmlns="http://www.w3.org/2000/svg">
<path fill-rule="evenodd" clip-rule="evenodd" d="M34.053 19.5572C34.1587 19.4515 34.2426 19.3261 34.2999 19.1881C34.3572 19.05 34.3867 18.902 34.3868 18.7525C34.3869 18.6031 34.3576 18.455 34.3005 18.3169C34.2433 18.1788 34.1596 18.0532 34.054 17.9475C33.9483 17.8417 33.8229 17.7578 33.6848 17.7005C33.5468 17.6432 33.3988 17.6137 33.2493 17.6136C33.0999 17.6135 32.9518 17.6429 32.8137 17.7C32.6756 17.7571 32.55 17.8409 32.4443 17.9465L25.5802 24.8107L18.7182 17.9465C18.5046 17.7329 18.2149 17.6129 17.9128 17.6129C17.6108 17.6129 17.3211 17.7329 17.1075 17.9465C16.8939 18.1601 16.7739 18.4498 16.7739 18.7518C16.7739 19.0539 16.8939 19.3436 17.1075 19.5572L23.9716 26.4194L17.1075 33.2816C17.0017 33.3873 16.9179 33.5129 16.8606 33.6511C16.8034 33.7892 16.7739 33.9373 16.7739 34.0869C16.7739 34.2365 16.8034 34.3846 16.8606 34.5227C16.9179 34.6609 17.0017 34.7865 17.1075 34.8922C17.3211 35.1058 17.6108 35.2258 17.9128 35.2258C18.0624 35.2258 18.2105 35.1964 18.3487 35.1391C18.4868 35.0819 18.6124 34.998 18.7182 34.8922L25.5802 28.0281L32.4443 34.8922C32.6579 35.1056 32.9475 35.2253 33.2493 35.2251C33.5512 35.2249 33.8406 35.1048 34.054 34.8912C34.2673 34.6777 34.387 34.3881 34.3868 34.0862C34.3866 33.7843 34.2665 33.4949 34.053 33.2816L27.1889 26.4194L34.053 19.5572Z" fill="black"/>
<line x1="0.5" x2="0.5" y2="52.8387" stroke="black"/>
<line x1="51.6616" x2="51.6616" y2="52.8387" stroke="black"/>
<line x1="52" y1="0.5" x2="-4.44164e-08" y2="0.499995" stroke="black"/>
<line x1="52" y1="52.5" x2="-4.44164e-08" y2="52.5" stroke="black"/>
</svg>
