<svg width="50" height="50" viewBox="0 0 50 50" fill="none" xmlns="http://www.w3.org/2000/svg">
<g clip-path="url(#clip0_568_2)">
<path fill-rule="evenodd" clip-rule="evenodd" d="M32.1253 18.45C32.225 18.3503 32.3041 18.232 32.3582 18.1018C32.4122 17.9715 32.4401 17.8319 32.4402 17.6908C32.4403 17.5499 32.4126 17.4102 32.3587 17.2799C32.3048 17.1496 32.2258 17.0311 32.1262 16.9314C32.0265 16.8316 31.9082 16.7524 31.7779 16.6984C31.6477 16.6443 31.5081 16.6165 31.367 16.6164C31.2261 16.6163 31.0864 16.644 30.9561 16.6979C30.8258 16.7518 30.7073 16.8308 30.6076 16.9304L24.1321 23.4061L17.6585 16.9304C17.457 16.7289 17.1837 16.6157 16.8987 16.6157C16.6137 16.6157 16.3404 16.7289 16.1389 16.9304C15.9374 17.132 15.8242 17.4053 15.8242 17.6902C15.8242 17.9752 15.9374 18.2485 16.1389 18.45L22.6145 24.9237L16.1389 31.3975C16.0391 31.4972 15.9601 31.6157 15.906 31.7461C15.852 31.8764 15.8242 32.0161 15.8242 32.1572C15.8242 32.2984 15.852 32.4381 15.906 32.5684C15.9601 32.6987 16.0391 32.8172 16.1389 32.917C16.3404 33.1185 16.6137 33.2317 16.8987 33.2317C17.0398 33.2317 17.1795 33.2039 17.3099 33.1499C17.4402 33.0959 17.5587 33.0168 17.6585 32.917L24.1321 26.4414L30.6076 32.917C30.8091 33.1183 31.0823 33.2312 31.367 33.231C31.6519 33.2308 31.9249 33.1175 32.1262 32.916C32.3274 32.7146 32.4404 32.4414 32.4402 32.1566C32.44 31.8718 32.3267 31.5987 32.1253 31.3975L25.6497 24.9237L32.1253 18.45Z" fill="black"/>
<path d="M0.47168 0V49.8478" stroke="black"/>
<path d="M48.7373 0V49.8478" stroke="black"/>
<path d="M49.0566 0.471685L0 0.47168" stroke="black"/>
<path d="M49.0566 49.5283H0" stroke="black"/>
</g>
<defs>
<clipPath id="clip0_568_2">
<rect width="50" height="50" fill="white"/>
</clipPath>
</defs>
</svg>
