<svg width="26" height="23" viewBox="0 0 26 23" fill="none" xmlns="http://www.w3.org/2000/svg">
<path d="M13 22C12.7267 21.9997 12.4645 21.8925 12.2714 21.7017L2.96482 12.4965C1.70542 11.2293 1 9.52575 1 7.75148C1 5.97719 1.70542 4.27361 2.96482 3.00651C4.24092 1.74815 5.97161 1.04123 7.77621 1.04123C9.58079 1.04123 11.3115 1.74815 12.5876 3.00651L13 3.359L13.3849 2.9794C14.0159 2.35035 14.7674 1.85138 15.5958 1.51157C16.4242 1.17175 17.3129 0.997884 18.21 1.00007C19.1063 0.996108 19.9944 1.16785 20.8228 1.50531C21.651 1.84279 22.4031 2.33923 23.0352 2.96584C24.2945 4.23294 25 5.93652 25 7.71081C25 9.48508 24.2945 11.1887 23.0352 12.4558L13.7286 21.6611C13.6365 21.7629 13.5244 21.8453 13.3992 21.9036C13.2741 21.9618 13.1383 21.9946 13 22ZM7.78995 3.02007C7.16561 3.01558 6.54655 3.13308 5.96849 3.36576C5.39043 3.59845 4.86482 3.94172 4.42198 4.37577C3.52963 5.2599 3.02867 6.45658 3.02867 7.70403C3.02867 8.95147 3.52963 10.1482 4.42198 11.0323L13 19.5462L21.5643 11.0595C22.0077 10.6225 22.3596 10.1037 22.5997 9.53253C22.8397 8.9615 22.9633 8.34936 22.9633 7.73115C22.9633 7.11293 22.8397 6.50079 22.5997 5.9297C22.3596 5.35862 22.0077 4.83979 21.5643 4.40289C21.1249 3.96802 20.6018 3.62409 20.0259 3.39127C19.4499 3.15847 18.8325 3.04149 18.21 3.04718C17.5856 3.0427 16.9666 3.16019 16.3886 3.39287C15.8105 3.62557 15.2848 3.96883 14.8421 4.40289L13.7286 5.50101C13.5318 5.68505 13.2711 5.78765 13 5.78765C12.7289 5.78765 12.4681 5.68505 12.2714 5.50101L11.1579 4.40289C10.7173 3.96394 10.1928 3.61567 9.6146 3.37829C9.03643 3.1409 8.41622 3.01913 7.78995 3.02007Z" fill="black" stroke="black" stroke-width="0.5"/>
</svg>
