<svg width="22" height="18" viewBox="0 0 22 18" fill="none" xmlns="http://www.w3.org/2000/svg">
<path d="M11 18C10.7495 17.9998 10.5092 17.9079 10.3321 17.7444L1.80108 9.85415C0.646633 8.76799 0 7.30778 0 5.78698C0 4.26616 0.646633 2.80595 1.80108 1.71987C2.97085 0.641267 4.55731 0.0353369 6.21152 0.0353369C7.86573 0.0353369 9.45217 0.641267 10.6219 1.71987L11 2.022L11.3528 1.69663C11.9312 1.15744 12.6201 0.729757 13.3795 0.438493C14.1388 0.147218 14.9535 -0.00181352 15.7759 5.73499e-05C16.5975 -0.00333579 17.4115 0.143871 18.1709 0.433124C18.9301 0.722389 19.6195 1.14791 20.1989 1.68501C21.3533 2.77109 22 4.2313 22 5.75212C22 7.27292 21.3533 8.73313 20.1989 9.81929L11.6679 17.7095C11.5834 17.7968 11.4807 17.8674 11.3659 17.9174C11.2513 17.9672 11.1268 17.9954 11 18ZM6.22412 1.73149C5.65181 1.72764 5.08434 1.82835 4.55445 2.02779C4.02456 2.22725 3.54275 2.52147 3.13682 2.89352C2.31883 3.65134 1.85962 4.67707 1.85962 5.74631C1.85962 6.81555 2.31883 7.84127 3.13682 8.59915L11 15.8967L18.8506 8.62239C19.2571 8.24787 19.5797 7.80316 19.7997 7.31359C20.0197 6.82415 20.133 6.29945 20.133 5.76955C20.133 5.23966 20.0197 4.71496 19.7997 4.22545C19.5797 3.73596 19.2571 3.29125 18.8506 2.91676C18.4478 2.54402 17.9684 2.24922 17.4404 2.04966C16.9124 1.85012 16.3464 1.74985 15.7759 1.75473C15.2035 1.75088 14.6361 1.8516 14.1062 2.05104C13.5763 2.25049 13.0944 2.54471 12.6886 2.91676L11.6679 3.85801C11.4875 4.01575 11.2485 4.1037 11 4.1037C10.7515 4.1037 10.5124 4.01575 10.3321 3.85801L9.31142 2.91676C8.90755 2.54052 8.4267 2.242 7.89671 2.03853C7.36673 1.83506 6.7982 1.73069 6.22412 1.73149Z" fill="black"/>
</svg>
