<svg width="19" height="23" viewBox="0 0 19 23" fill="none" xmlns="http://www.w3.org/2000/svg">
<path d="M12.1026 15.9665V18.6747C12.1026 19.248 11.9359 19.5346 11.6026 19.5346C11.406 19.5346 11.2137 19.4405 11.0256 19.2522V15.389C11.2137 15.2007 11.406 15.1066 11.6026 15.1066C11.9359 15.1066 12.1026 15.3932 12.1026 15.9665ZM16.4359 15.9794V16.5698H15.2821V15.9794C15.2821 15.3975 15.4744 15.1066 15.859 15.1066C16.2436 15.1066 16.4359 15.3975 16.4359 15.9794ZM4.05128 13.1814H5.42308V11.9749H1.42308V13.1814H2.76923V20.4844H4.05128V13.1814ZM7.74359 20.4844H8.88462V14.144H7.74359V18.9955C7.48718 19.3549 7.24359 19.5346 7.01282 19.5346C6.85897 19.5346 6.76923 19.4448 6.74359 19.2651C6.73504 19.2394 6.73077 19.0897 6.73077 18.8158V14.144H5.58974V19.1624C5.58974 19.5817 5.62393 19.894 5.69231 20.0993C5.79487 20.4159 6.04274 20.5742 6.4359 20.5742C6.84615 20.5742 7.28205 20.3132 7.74359 19.7913V20.4844ZM13.2436 18.5848V16.0564C13.2436 15.4317 13.2051 15.0082 13.1282 14.7857C12.9829 14.3065 12.6795 14.067 12.2179 14.067C11.7906 14.067 11.3932 14.298 11.0256 14.76V11.9749H9.88462V20.4844H11.0256V19.8683C11.4103 20.3389 11.8077 20.5742 12.2179 20.5742C12.6795 20.5742 12.9829 20.3389 13.1282 19.8683C13.2051 19.6373 13.2436 19.2095 13.2436 18.5848ZM17.5769 18.4565V18.2896H16.4103C16.4103 18.726 16.4017 18.987 16.3846 19.0725C16.3248 19.3806 16.1538 19.5346 15.8718 19.5346C15.4786 19.5346 15.2821 19.2394 15.2821 18.649V17.5324H17.5769V16.2104C17.5769 15.5344 17.4615 15.0381 17.2308 14.7215C16.8974 14.2852 16.4444 14.067 15.8718 14.067C15.2906 14.067 14.8333 14.2852 14.5 14.7215C14.2607 15.0381 14.141 15.5344 14.141 16.2104V18.4308C14.141 19.1068 14.265 19.6031 14.5128 19.9196C14.8462 20.356 15.3077 20.5742 15.8974 20.5742C16.5128 20.5742 16.9744 20.3475 17.2821 19.894C17.4359 19.6629 17.5256 19.4319 17.5513 19.2009C17.5684 19.1239 17.5769 18.8757 17.5769 18.4565ZM9.78205 6.73828V4.04297C9.78205 3.45257 9.59829 3.15737 9.23077 3.15737C8.86325 3.15737 8.67949 3.45257 8.67949 4.04297V6.73828C8.67949 7.33724 8.86325 7.63672 9.23077 7.63672C9.59829 7.63672 9.78205 7.33724 9.78205 6.73828ZM19 16.3772C19 18.3795 18.8889 19.8769 18.6667 20.8694C18.547 21.3743 18.2991 21.7978 17.9231 22.1401C17.547 22.4823 17.1111 22.6791 16.6154 22.7305C15.0427 22.9102 12.6709 23 9.5 23C6.32906 23 3.95726 22.9102 2.38462 22.7305C1.88889 22.6791 1.45085 22.4823 1.07051 22.1401C0.690171 21.7978 0.444444 21.3743 0.333333 20.8694C0.111111 19.9111 0 18.4137 0 16.3772C0 14.375 0.111111 12.8776 0.333333 11.885C0.452991 11.3802 0.700855 10.9567 1.07692 10.6144C1.45299 10.2721 1.89316 10.0711 2.39744 10.0112C3.96154 9.84003 6.32906 9.75446 9.5 9.75446C12.6709 9.75446 15.0427 9.84003 16.6154 10.0112C17.1111 10.0711 17.5491 10.2721 17.9295 10.6144C18.3098 10.9567 18.5556 11.3802 18.6667 11.885C18.8889 12.8434 19 14.3408 19 16.3772ZM6.20513 0H7.51282L5.96154 5.12109V8.59933H4.67949V5.12109C4.55983 4.48791 4.29915 3.58092 3.89744 2.40011C3.5812 1.51879 3.30342 0.71875 3.0641 0H4.42308L5.33333 3.37556L6.20513 0ZM10.9487 4.274V6.52009C10.9487 7.21317 10.8291 7.71801 10.5897 8.0346C10.265 8.47098 9.81197 8.68917 9.23077 8.68917C8.65812 8.68917 8.2094 8.47098 7.88462 8.0346C7.6453 7.70945 7.52564 7.20461 7.52564 6.52009V4.274C7.52564 3.58947 7.6453 3.08891 7.88462 2.77232C8.2094 2.33594 8.65812 2.11775 9.23077 2.11775C9.81197 2.11775 10.265 2.33594 10.5897 2.77232C10.8291 3.08891 10.9487 3.58947 10.9487 4.274ZM15.2436 2.19475V8.59933H14.0769V7.89342C13.6239 8.42392 13.1838 8.68917 12.7564 8.68917C12.3632 8.68917 12.1111 8.53088 12 8.21429C11.9316 8.00893 11.8974 7.68806 11.8974 7.25167V2.19475H13.0641V6.90513C13.0641 7.1875 13.0684 7.33724 13.0769 7.35435C13.1026 7.5426 13.1923 7.63672 13.3462 7.63672C13.5769 7.63672 13.8205 7.45275 14.0769 7.08482V2.19475H15.2436Z" fill="#111111"/>
</svg>
